HIERARCHY
ROOT Hips
{
	OFFSET 0.000000 0.000000 0.000000
	CHANNELS 6 Xposition Yposition Zposition Zrotation Yrotation Xrotation 
	JOINT LHipJoint
	{
		OFFSET 0.000000 0.000000 0.000000
		CHANNELS 3 Zrotation Yrotation Xrotation
		JOINT LeftUpLeg
		{
			OFFSET 1.363060 -1.794630 0.839290
			CHANNELS 3 Zrotation Yrotation Xrotation
			JOINT LeftLeg
			{
				OFFSET 2.448110 -6.726130 0.000000
				CHANNELS 3 Zrotation Yrotation Xrotation
				JOINT LeftFoot
				{
					OFFSET 2.562200 -7.039590 0.000000
					CHANNELS 3 Zrotation Yrotation Xrotation
					JOINT LeftToeBase
					{
						OFFSET 0.157640 -0.433110 2.322550
						CHANNELS 3 Zrotation Yrotation Xrotation
						End Site
						{
							OFFSET 0.000000 0.000000 0.000000
						}
					}
				}
			}
		}
	}
	JOINT RHipJoint
	{
		OFFSET 0.000000 0.000000 0.000000
		CHANNELS 3 Zrotation Yrotation Xrotation
		JOINT RightUpLeg
		{
			OFFSET -1.305520 -1.794630 0.839290
			CHANNELS 3 Zrotation Yrotation Xrotation
			JOINT RightLeg
			{
				OFFSET -2.542530 -6.985550 0.000000
				CHANNELS 3 Zrotation Yrotation Xrotation
				JOINT RightFoot
				{
					OFFSET -2.568260 -7.056230 0.000000
					CHANNELS 3 Zrotation Yrotation Xrotation
					JOINT RightToeBase
					{
						OFFSET -0.164730 -0.452590 2.363150
						CHANNELS 3 Zrotation Yrotation Xrotation
						End Site
						{
							OFFSET 0.000000 0.000000 0.000000
						}
					}
				}
			}
		}
	}
	JOINT LowerBack
	{
		OFFSET 0.000000 0.000000 0.000000
		CHANNELS 3 Zrotation Yrotation Xrotation
		JOINT Spine
		{
			OFFSET 0.028270 2.035590 -0.193380
			CHANNELS 3 Zrotation Yrotation Xrotation
			JOINT Spine1
			{
				OFFSET 0.056720 2.048850 -0.042750
				CHANNELS 3 Zrotation Yrotation Xrotation
				JOINT Neck
				{
					OFFSET 0.000000 0.000000 0.000000
					CHANNELS 3 Zrotation Yrotation Xrotation
					JOINT Neck1
					{
						OFFSET -0.054170 1.746240 0.172020
						CHANNELS 3 Zrotation Yrotation Xrotation
						JOINT Head
						{
							OFFSET 0.104070 1.761360 -0.123970
							CHANNELS 3 Zrotation Yrotation Xrotation
							End Site
							{
								OFFSET 0.000000 0.000000 0.000000
							}
						}
					}
				}
				JOINT LeftShoulder
				{
					OFFSET 0.000000 0.000000 0.000000
					CHANNELS 3 Zrotation Yrotation Xrotation
					JOINT LeftArm
					{
						OFFSET 3.362410 1.200890 -0.311210
						CHANNELS 3 Zrotation Yrotation Xrotation
						JOINT LeftForeArm
						{
							OFFSET 4.983000 -0.000000 -0.000000
							CHANNELS 3 Zrotation Yrotation Xrotation
							JOINT LeftHand
							{
								OFFSET 3.483560 -0.000000 -0.000000
								CHANNELS 3 Zrotation Yrotation Xrotation
								JOINT LeftFingerBase
								{
									OFFSET 0.000000 0.000000 0.000000
									CHANNELS 3 Zrotation Yrotation Xrotation
									JOINT LeftHandIndex1
									{
										OFFSET 0.715260 -0.000000 -0.000000
										CHANNELS 3 Zrotation Yrotation Xrotation
										End Site
										{
											OFFSET 0.000000 0.000000 0.000000
										}
									}
								}
								JOINT LThumb
								{
									OFFSET 0.000000 0.000000 0.000000
									CHANNELS 3 Zrotation Yrotation Xrotation
									End Site
									{
										OFFSET 0.000000 0.000000 0.000000
									}
								}
							}
						}
					}
				}
				JOINT RightShoulder
				{
					OFFSET 0.000000 0.000000 0.000000
					CHANNELS 3 Zrotation Yrotation Xrotation
					JOINT RightArm
					{
						OFFSET -3.136600 1.374050 -0.404650
						CHANNELS 3 Zrotation Yrotation Xrotation
						JOINT RightForeArm
						{
							OFFSET -5.241900 -0.000000 -0.000000
							CHANNELS 3 Zrotation Yrotation Xrotation
							JOINT RightHand
							{
								OFFSET -3.444170 -0.000000 -0.000000
								CHANNELS 3 Zrotation Yrotation Xrotation
								JOINT RightFingerBase
								{
									OFFSET 0.000000 0.000000 0.000000
									CHANNELS 3 Zrotation Yrotation Xrotation
									JOINT RightHandIndex1
									{
										OFFSET -0.622530 -0.000000 -0.000000
										CHANNELS 3 Zrotation Yrotation Xrotation
										End Site
										{
											OFFSET 0.000000 0.000000 0.000000
										}
									}
								}
								JOINT RThumb
								{
									OFFSET 0.000000 0.000000 0.000000
									CHANNELS 3 Zrotation Yrotation Xrotation
									End Site
									{
										OFFSET 0.000000 0.000000 0.000000
									}
								}
							}
						}
					}
				}
			}
		}
	}
}
MOTION
Frames: 5
Frame Time: 0.008333
-0.646352 18.560540 6.204741 -0.185140 -8.500341 8.811446 2.300125 3.675808 3.051365 -15.908017 -1.651608 -13.210038 0.628301 6.177380 20.677806 -0.721965 5.150400 -8.354273 8.374100 -16.387600 -53.899300 -1.582817 -3.998160 3.119051 13.510622 10.103436 -1.012486 0.550479 0.646130 1.489665 0.777443 -7.762995 -13.320530 -0.052100 1.472700 -4.050400 5.964237 -1.727014 16.876457 12.137239 -2.862456 21.153388 -5.164376 -0.921808 -28.291209 3.811665 2.122352 -35.089121 -10.577507 4.926614 6.764788 -2.591400 1.925600 5.285900 0.695387 -5.702845 0.764712 -28.252404 8.166567 -46.785341 36.515164 -43.562789 -11.638856 -1.053832 -0.042601 7.798465 -28.786398 -5.139941 2.614200 -7.125000 0.000000 0.000000 -36.965400 22.906800 25.377700 -4.900690 10.388592 1.614137 26.370200 -35.450469 -31.856481 -45.791750 48.814619 -14.869995 2.793991 -2.720425 -1.021454 22.405684 -41.760263 -12.800300 7.125000 0.000000 0.000000 61.817200 -59.145700 -27.579600 
-0.662476 18.561917 6.202185 0.090977 -8.490433 8.681222 2.103269 3.720736 3.129794 -15.913240 -1.686049 -13.261470 0.631018 6.231896 20.733678 -0.727462 5.171282 -8.211600 8.394000 -16.401500 -53.969800 -1.781278 -3.968595 3.062067 13.504025 9.910650 -0.890672 0.551441 0.678481 1.507196 0.771040 -7.683125 -13.268331 -0.065300 1.648800 -4.535900 6.413627 -1.802845 16.992176 9.980143 -2.549927 21.427282 -4.729010 -0.811269 -28.630206 3.721180 2.109472 -34.928561 -10.034295 4.824036 6.841170 -2.453400 1.909000 5.243300 0.810483 -6.062997 0.735269 -29.114840 10.734073 -46.005779 39.351484 -45.700338 -13.577984 -1.004319 -0.131106 4.080489 -31.324598 -3.897788 2.162800 -7.125000 0.000000 0.000000 -38.569900 23.526000 26.506600 -4.436557 10.502446 1.303764 27.089706 -37.498004 -32.768357 -48.344216 50.377919 -16.551656 2.832000 -2.381421 -3.725073 22.796187 -41.550322 -13.125700 7.125000 0.000000 0.000000 62.188500 -59.020600 -27.644500 
-0.680862 18.563293 6.199530 0.278443 -8.452371 8.606261 1.925441 3.766244 3.201109 -15.824082 -1.803832 -13.315060 0.631320 6.283572 20.779666 -0.737143 5.210308 -8.082723 8.431100 -16.427300 -54.101000 -1.960805 -3.934551 3.004199 13.577586 9.714703 -0.801788 0.551644 0.709744 1.524582 0.744865 -7.516790 -13.247842 -0.060800 1.591000 -4.376600 6.799348 -1.878066 17.146205 8.016298 -2.254809 21.667702 -4.357940 -0.720660 -28.894374 3.657056 2.099569 -34.561679 -9.436488 4.659857 6.567523 -2.318700 1.873600 5.099200 0.922840 -6.416365 0.646653 -30.377560 14.492761 -43.721926 43.390120 -48.278482 -16.408133 -0.853311 -0.196943 -1.486717 -31.906634 -2.479511 1.381600 -7.125000 0.000000 0.000000 -39.361800 24.623400 26.010900 -4.065284 10.579135 1.079617 29.200724 -39.161638 -34.442672 -51.373954 51.747443 -18.543086 2.635181 -2.143971 -5.032653 17.321806 -40.245267 -9.318400 7.125000 0.000000 0.000000 56.065500 -59.476100 -24.318700 
-0.702394 18.565456 6.195007 0.452593 -8.352795 8.558349 1.777134 3.802169 3.254981 -15.728027 -1.942752 -13.372664 0.635463 6.332990 20.833408 -0.731313 5.178968 -7.940384 8.451300 -16.441300 -54.172300 -2.110973 -3.903467 2.948613 13.645999 9.481814 -0.741876 0.550499 0.735443 1.539991 0.703392 -7.286224 -13.251444 -0.047200 1.402000 -3.855700 6.967862 -1.927499 17.392461 6.374727 -2.005397 21.822336 -4.008786 -0.630993 -29.117286 3.398973 2.043239 -34.099868 -8.631981 4.438952 6.137724 -2.119100 1.818300 4.904200 1.020825 -6.741088 0.491919 -32.122531 19.301563 -40.245267 49.167509 -51.252262 -20.608266 -0.645647 -0.203660 -8.271220 -30.143632 -0.735406 0.347600 -7.125000 0.000000 0.000000 -39.253000 26.463300 23.412900 -3.779930 10.606500 0.972388 32.455513 -40.317217 -36.802137 -54.555206 52.766542 -20.698506 2.446275 -1.956508 -4.622866 12.890047 -38.044473 -6.272100 7.125000 0.000000 0.000000 49.706300 -59.067400 -20.106300 
-0.726580 18.567423 6.187142 0.650268 -8.174312 8.836716 1.657167 3.732407 3.093961 -15.683387 -1.964489 -13.630202 0.638820 6.402654 20.890251 -0.696477 5.029210 -7.717692 8.452900 -16.442500 -54.178200 -2.263167 -3.840157 2.726533 13.702719 9.245984 -0.853791 0.549196 0.724456 1.541626 0.666153 -7.105260 -13.246363 -0.036500 1.233200 -3.390800 6.923227 -1.897192 18.272400 5.123245 -1.624841 19.809149 -3.745918 -0.492531 -28.420848 2.840062 1.869452 -33.457266 -7.664440 4.120037 5.649158 -1.822300 1.727000 4.647900 0.914403 -6.937991 0.546742 -34.577610 22.390654 -39.204335 53.972924 -53.236614 -24.236766 -0.462390 -0.172864 -12.339761 -27.595857 -0.816889 0.379900 -7.125000 0.000000 0.000000 -38.049100 26.787600 21.785300 -3.377678 10.525658 1.178228 36.690603 -40.955120 -39.316961 -57.939774 53.580630 -23.138170 2.145909 -1.956434 -3.726124 4.850324 -36.527529 -1.564000 7.125000 0.000000 0.000000 40.677300 -59.647000 -16.146100 
